<?xml version="1.0" encoding="utf-8"?>
<!-- Generator: Adobe Illustrator 16.0.0, SVG Export Plug-In . SVG Version: 6.00 Build 0)  -->
<!DOCTYPE svg PUBLIC "-//W3C//DTD SVG 1.1//EN" "http://www.w3.org/Graphics/SVG/1.1/DTD/svg11.dtd">
<svg version="1.1" id="Layer_1" xmlns="http://www.w3.org/2000/svg" xmlns:xlink="http://www.w3.org/1999/xlink" x="0px" y="0px"
	 width="120px" height="120px" viewBox="0 0 120 120" enable-background="new 0 0 120 120" xml:space="preserve">
<path fill="none" stroke="#32D0FF" stroke-width="2" stroke-linecap="round" stroke-miterlimit="10" d="M87.121,84.518h7.807
	c11.922,0,21.676-9.755,21.676-21.677c0-10.557-7.652-19.675-17.683-21.565C98.696,24.177,84.784,9.828,67.632,9.828
	c-10.927,0-21.186,5.907-26.85,14.42c-2.491-1.657-5.479-2.627-8.695-2.627c-8.684,0-15.724,7.04-15.724,15.724
	c0,0.301,0.028,0.595,0.045,0.892c-0.019,0.359-0.045,0.721-0.045,1.074C8.523,43.068,2.604,52.002,2.604,61.235
	c0,12.805,10.477,23.282,23.282,23.282h10.132"/>
<path fill="none" stroke="#FFFFFF" stroke-width="2" stroke-linecap="round" stroke-miterlimit="10" d="M73.198,110.173H48.009
	c-1.88,0-3.405-1.525-3.405-3.406V55.578c0-1.881,1.525-3.406,3.405-3.406h25.189c1.881,0,3.405,1.525,3.405,3.406v51.188
	C76.604,108.647,75.079,110.173,73.198,110.173z"/>
<circle fill="none" stroke="#FFFFFF" stroke-width="2" stroke-linecap="round" stroke-miterlimit="10" cx="60.604" cy="104.173" r="3"/>
<line fill="none" stroke="#FFFFFF" stroke-width="2" stroke-linecap="round" stroke-miterlimit="10" x1="44.604" y1="98.173" x2="76.604" y2="98.173"/>
<line fill="none" stroke="#FFFFFF" stroke-width="2" stroke-linecap="round" stroke-miterlimit="10" x1="44.604" y1="58.172" x2="76.604" y2="58.172"/>
<line fill="none" stroke="#FFFFFF" stroke-width="2" stroke-linecap="round" stroke-miterlimit="10" x1="56.604" y1="55.172" x2="60.604" y2="55.172"/>
<line fill="none" stroke="#FFFFFF" stroke-width="2" stroke-linecap="round" stroke-miterlimit="10" x1="63.604" y1="55.172" x2="64.604" y2="55.172"/>
</svg>
