<?xml version="1.0" encoding="utf-8"?>
<!-- Generator: Adobe Illustrator 16.0.0, SVG Export Plug-In . SVG Version: 6.00 Build 0)  -->
<!DOCTYPE svg PUBLIC "-//W3C//DTD SVG 1.1//EN" "http://www.w3.org/Graphics/SVG/1.1/DTD/svg11.dtd">
<svg version="1.1" id="Layer_1" xmlns="http://www.w3.org/2000/svg" xmlns:xlink="http://www.w3.org/1999/xlink" x="0px" y="0px"
	 width="100px" height="100px" viewBox="0 0 100 100" enable-background="new 0 0 100 100" xml:space="preserve">
<g>
	<g>
		<path fill="#BBBBBB" d="M49.984,2c26.467,0,48,21.533,48,48c0,26.468-21.532,48-48,48s-48-21.532-48-48
			C1.984,23.533,23.517,2,49.984,2 M49.984,0c-27.614,0-50,22.386-50,50s22.386,50,50,50c27.614,0,50-22.386,50-50
			S77.598,0,49.984,0L49.984,0z"/>
	</g>
</g>
<path fill="none" stroke="#BBBBBB" stroke-width="2" stroke-linejoin="round" stroke-miterlimit="10" d="M50,23.331
	c0,0-6.667,8-22,8v19.085c0,9.966,4.328,19.577,12.164,25.735c2.773,2.18,6.044,4.055,9.836,5.18c3.792-1.125,7.062-3,9.836-5.18
	C67.672,69.993,72,60.382,72,50.416V31.331C56.667,31.331,50,23.331,50,23.331z"/>
<path fill="none" stroke="#32D0FF" stroke-width="2" stroke-linecap="round" stroke-miterlimit="10" d="M62,49.331h-2.573
	c-1.31,0-1.855-1.083-0.93-2.009l1.786-1.786c0.347-0.348,0.347-0.911,0-1.259L58.006,42c-0.347-0.347-0.911-0.347-1.259,0
	l-1.786,1.786C54.035,44.712,52,44.056,52,42.747v-2.526c0-0.49-0.399-0.89-0.89-0.89H48.89c-0.491,0-0.89,0.399-0.89,0.89v2.526
	c0,1.309-2.131,1.965-3.057,1.039L43.157,42c-0.349-0.347-0.911-0.347-1.259,0l-2.276,2.277c-0.349,0.348-0.349,0.911,0,1.259
	l1.786,1.786c0.925,0.926,0.379,2.009-0.931,2.009H38c-0.492,0-1,0.899-1,1.39v2.61c0,0.492,0.508,1,1,1h2.478
	c1.31,0,1.855,2.083,0.931,3.009l-1.786,1.786c-0.349,0.348-0.349,0.911,0,1.259l2.276,2.277c0.348,0.347,0.91,0.347,1.259,0
	l1.786-1.786C45.869,59.95,48,61.022,48,62.331v2c0,0.492-0.149,1,0.343,1h3.219c0.492,0,0.438-0.508,0.438-1v-2
	c0-1.309,2.035-2.381,2.961-1.455l1.786,1.786c0.348,0.347,0.912,0.347,1.259,0l2.277-2.277c0.347-0.348,0.347-0.911,0-1.259
	l-1.786-1.786c-0.926-0.926-0.38-2.009,0.93-2.009H62c0.492,0,1-0.899,1-1.39v-3.221C63,50.23,62.492,49.331,62,49.331z"/>
<circle fill="none" stroke="#32D0FF" stroke-width="2" stroke-linecap="round" stroke-miterlimit="10" cx="49.952" cy="52.331" r="4"/>
</svg>
