<?xml version="1.0" encoding="utf-8"?>
<!-- Generator: Adobe Illustrator 16.0.0, SVG Export Plug-In . SVG Version: 6.00 Build 0)  -->
<!DOCTYPE svg PUBLIC "-//W3C//DTD SVG 1.1//EN" "http://www.w3.org/Graphics/SVG/1.1/DTD/svg11.dtd">
<svg version="1.1" id="Layer_1" xmlns="http://www.w3.org/2000/svg" xmlns:xlink="http://www.w3.org/1999/xlink" x="0px" y="0px"
	 width="120px" height="120px" viewBox="0 0 120 120" enable-background="new 0 0 120 120" xml:space="preserve">
<circle fill="none" stroke="#FFFFFF" stroke-width="2" stroke-linecap="round" stroke-miterlimit="10" cx="60.5" cy="59.5" r="46.5"/>
<line fill="none" stroke="#32D0FF" stroke-width="2" stroke-linecap="round" stroke-miterlimit="10" x1="60.5" y1="106" x2="60.5" y2="13"/>
<path fill="none" stroke="#32D0FF" stroke-width="2" stroke-linecap="round" stroke-miterlimit="10" d="M60.5,13
	c-0.356,0-0.708,0.019-1.062,0.027C45.907,23.988,37.25,40.729,37.25,59.5s8.657,35.513,22.188,46.473
	C59.792,105.981,60.144,106,60.5,106"/>
<path fill="none" stroke="#32D0FF" stroke-width="2" stroke-linecap="round" stroke-miterlimit="10" d="M26.785,27.495
	c9.599,6.568,21.206,10.416,33.715,10.416c12.509,0,24.116-3.848,33.715-10.416"/>
<path fill="none" stroke="#32D0FF" stroke-width="2" stroke-linecap="round" stroke-miterlimit="10" d="M95.146,90.506
	C85.369,83.54,73.419,79.429,60.5,79.429c-12.918,0-24.87,4.111-34.646,11.077"/>
<path fill="none" stroke="#32D0FF" stroke-width="2" stroke-linecap="round" stroke-miterlimit="10" d="M60.5,106
	c0.356,0,0.707-0.019,1.062-0.027C75.093,95.013,83.75,78.271,83.75,59.5s-8.657-35.512-22.188-46.473
	C61.207,13.019,60.856,13,60.5,13"/>
<line fill="none" stroke="#32D0FF" stroke-width="2" stroke-linecap="round" stroke-miterlimit="10" x1="14" y1="59.5" x2="107" y2="59.5"/>
</svg>
