<?xml version="1.0" encoding="utf-8"?>
<!-- Generator: Adobe Illustrator 16.0.0, SVG Export Plug-In . SVG Version: 6.00 Build 0)  -->
<!DOCTYPE svg PUBLIC "-//W3C//DTD SVG 1.1//EN" "http://www.w3.org/Graphics/SVG/1.1/DTD/svg11.dtd">
<svg version="1.1" id="Layer_1" xmlns="http://www.w3.org/2000/svg" xmlns:xlink="http://www.w3.org/1999/xlink" x="0px" y="0px"
	 width="100px" height="100px" viewBox="0 0 100 100" enable-background="new 0 0 100 100" xml:space="preserve">
<g>
	<g>
		<path fill="#BBBBBB" d="M49.984,2c26.467,0,48,21.533,48,48c0,26.468-21.532,48-48,48s-48-21.532-48-48
			C1.984,23.533,23.517,2,49.984,2 M49.984,0c-27.614,0-50,22.386-50,50s22.386,50,50,50c27.614,0,50-22.386,50-50
			S77.598,0,49.984,0L49.984,0z"/>
	</g>
</g>
<path fill="none" stroke="#BBBBBB" stroke-width="2" stroke-linecap="round" stroke-linejoin="round" stroke-miterlimit="10" d="
	M63,43L63,43l-9.363,12.944c-0.927,1.274-2.771,1.419-3.886,0.305s-0.969-2.959,0.305-3.886L63,43z"/>
<path fill="none" stroke="#BBBBBB" stroke-width="2" stroke-linecap="round" stroke-linejoin="round" stroke-miterlimit="10" d="
	M49,27.084C49.661,27.033,50.326,27,51,27s1.339,0.033,2,0.084V24h2.5c0.828,0,1.5-0.672,1.5-1.5S56.328,21,55.5,21h-9
	c-0.828,0-1.5,0.672-1.5,1.5s0.672,1.5,1.5,1.5H49V27.084z"/>
<path fill="none" stroke="#BBBBBB" stroke-width="2" stroke-linecap="round" stroke-linejoin="round" stroke-miterlimit="10" d="
	M49,27.084C49.661,27.033,50.326,27,51,27s1.339,0.033,2,0.084V24h2.5c0.828,0,1.5-0.672,1.5-1.5S56.328,21,55.5,21h-9
	c-0.828,0-1.5,0.672-1.5,1.5s0.672,1.5,1.5,1.5H49V27.084z"/>
<line fill="none" stroke="#BBBBBB" stroke-width="2" stroke-linecap="round" stroke-linejoin="round" stroke-miterlimit="10" x1="69.222" y1="34.615" x2="72.758" y2="31.08"/>
<rect x="72.172" y="27.666" transform="matrix(0.7071 -0.7071 0.7071 0.7071 0.7473 61.1361)" fill="none" stroke="#BBBBBB" stroke-width="2" stroke-linecap="round" stroke-linejoin="round" stroke-miterlimit="10" width="4" height="4"/>
<rect x="72.172" y="27.666" transform="matrix(0.7071 -0.7071 0.7071 0.7071 0.7473 61.1361)" fill="none" stroke="#BBBBBB" stroke-width="2" stroke-linecap="round" stroke-linejoin="round" stroke-miterlimit="10" width="4" height="4"/>
<line fill="none" stroke="#BBBBBB" stroke-width="2" stroke-linecap="round" stroke-linejoin="round" stroke-miterlimit="10" x1="51" y1="27" x2="51" y2="30"/>
<line fill="none" stroke="#BBBBBB" stroke-width="2" stroke-linecap="round" stroke-linejoin="round" stroke-miterlimit="10" x1="51" y1="76" x2="51" y2="79"/>
<line fill="none" stroke="#BBBBBB" stroke-width="2" stroke-linecap="round" stroke-linejoin="round" stroke-miterlimit="10" x1="76.837" y1="53" x2="73.837" y2="53"/>
<line fill="none" stroke="#BBBBBB" stroke-width="2" stroke-linecap="round" stroke-linejoin="round" stroke-miterlimit="10" x1="63.837" y1="30.483" x2="62.337" y2="33.082"/>
<line fill="none" stroke="#BBBBBB" stroke-width="2" stroke-linecap="round" stroke-linejoin="round" stroke-miterlimit="10" x1="73.354" y1="66" x2="70.756" y2="64.5"/>
<line fill="none" stroke="#BBBBBB" stroke-width="2" stroke-linecap="round" stroke-linejoin="round" stroke-miterlimit="10" x1="62.337" y1="72.919" x2="63.837" y2="75.517"/>
<line fill="none" stroke="#BBBBBB" stroke-width="2" stroke-linecap="round" stroke-linejoin="round" stroke-miterlimit="10" x1="73.354" y1="40" x2="70.756" y2="41.5"/>
<path fill="none" stroke="#BBBBBB" stroke-width="2" stroke-linecap="round" stroke-linejoin="round" stroke-miterlimit="10" d="
	M45,78.334C46.877,78.766,48.829,79,50.837,79c14.359,0,26-11.641,26-26c0-14.358-11.641-26-26-26c-2.008,0-3.96,0.235-5.837,0.666"
	/>
<line fill="none" stroke="#32D0FF" stroke-width="2" stroke-linecap="round" stroke-linejoin="round" stroke-miterlimit="10" x1="37" y1="35" x2="42" y2="35"/>
<line fill="none" stroke="#32D0FF" stroke-width="2" stroke-linecap="round" stroke-linejoin="round" stroke-miterlimit="10" x1="32" y1="42" x2="42" y2="42"/>
<line fill="none" stroke="#32D0FF" stroke-width="2" stroke-linecap="round" stroke-linejoin="round" stroke-miterlimit="10" x1="27" y1="49" x2="42" y2="49"/>
<line fill="none" stroke="#32D0FF" stroke-width="2" stroke-linecap="round" stroke-linejoin="round" stroke-miterlimit="10" x1="23" y1="56" x2="42" y2="56"/>
<line fill="none" stroke="#32D0FF" stroke-width="2" stroke-linecap="round" stroke-linejoin="round" stroke-miterlimit="10" x1="29" y1="63" x2="42" y2="63"/>
<line fill="none" stroke="#32D0FF" stroke-width="2" stroke-linecap="round" stroke-linejoin="round" stroke-miterlimit="10" x1="35" y1="70" x2="42" y2="70"/>
</svg>
