<?xml version="1.0" encoding="utf-8"?>
<!-- Generator: Adobe Illustrator 16.0.0, SVG Export Plug-In . SVG Version: 6.00 Build 0)  -->
<!DOCTYPE svg PUBLIC "-//W3C//DTD SVG 1.1//EN" "http://www.w3.org/Graphics/SVG/1.1/DTD/svg11.dtd">
<svg version="1.1" id="Layer_1" xmlns="http://www.w3.org/2000/svg" xmlns:xlink="http://www.w3.org/1999/xlink" x="0px" y="0px"
	 width="100px" height="100px" viewBox="0 0 100 100" enable-background="new 0 0 100 100" xml:space="preserve">
<g>
	<g>
		<path fill="#BBBBBB" d="M49.984,2c26.467,0,48,21.533,48,48c0,26.468-21.532,48-48,48s-48-21.532-48-48
			C1.984,23.533,23.517,2,49.984,2 M49.984,0c-27.614,0-50,22.386-50,50s22.386,50,50,50c27.614,0,50-22.386,50-50
			S77.598,0,49.984,0L49.984,0z"/>
	</g>
</g>
<path fill="none" stroke="#32D0FF" stroke-width="2" stroke-miterlimit="10" d="M77.761,75.999H54.069
	c-0.954,0-1.55-1.035-1.068-1.86l11.846-20.307c0.477-0.818,1.66-0.818,2.139,0L78.83,74.139
	C79.311,74.964,78.716,75.999,77.761,75.999z"/>
<line fill="none" stroke="#32D0FF" stroke-width="2" stroke-linecap="round" stroke-miterlimit="10" x1="66" y1="59.999" x2="66" y2="67.999"/>
<line fill="none" stroke="#32D0FF" stroke-width="2" stroke-linecap="round" stroke-miterlimit="10" x1="66" y1="71.999" x2="66" y2="71.999"/>
<path fill="none" stroke="#BBBBBB" stroke-width="2" stroke-linecap="round" stroke-miterlimit="10" d="M39.18,63.72l5.946-3.243
	c-0.034-0.033-0.006-0.042,0.065-0.035l2.91-1.588C49.272,58.215,50,56.989,50,55.655V52c0,0-1.062-1.275-2.092-3.322l-0.002-0.003
	c-0.134-0.268-0.267-0.551-0.398-0.844c-0.018-0.041-0.036-0.08-0.054-0.121c-0.133-0.303-0.263-0.616-0.387-0.944
	c-0.008-0.021-0.015-0.043-0.023-0.065c-0.108-0.29-0.209-0.589-0.306-0.895c-0.026-0.083-0.052-0.167-0.077-0.252
	c-0.101-0.338-0.197-0.682-0.278-1.037C45.554,43.981,45,43.054,45,42v-4c0-0.879,0.391-1.667,1-2.217v-5.647
	C44.586,29.039,42.397,28,39,28c-9.563,0-10,8-10,8v4.994c-0.526,0.476-1,1.155-1,1.915v3.455c0,0.91,0.479,1.711,1.194,2.173
	c0.863,3.759,3.76,6.463,3.76,6.463v3.156c0,1.152-0.628,2.211-1.639,2.763l-6.705,4.203C22.385,66.336,21,68.668,21,71.203V74h14
	v-3.238C35,67.826,36.603,65.125,39.18,63.72z"/>
<path fill="none" stroke="#BBBBBB" stroke-width="2" stroke-linecap="round" stroke-miterlimit="10" d="M66.873,44.854
	c1.225-0.377,2.126-1.51,2.126-2.854v-4c0-0.88-0.39-1.667-1-2.217V30c0,0,1.188-9-11-9c-12.187,0-11,9-11,9v5.783
	c-0.608,0.55-1,1.337-1,2.217v4c0,1.054,0.555,1.981,1.383,2.517C47.382,48.869,50,52.001,50,52.001v3.654
	c0,1.333-0.728,2.561-1.898,3.198L39.18,63.72C36.604,65.126,35,67.826,35,70.761v3.24h12"/>
</svg>
