<?xml version="1.0" encoding="utf-8"?>
<!-- Generator: Adobe Illustrator 20.0.0, SVG Export Plug-In . SVG Version: 6.00 Build 0)  -->
<svg version="1.1" id="Layer_1" xmlns="http://www.w3.org/2000/svg" xmlns:xlink="http://www.w3.org/1999/xlink" x="0px" y="0px"
	 viewBox="0 0 416.2 101.9" enable-background="new 0 0 416.2 101.9" xml:space="preserve">
<path fill="#56B754" d="M0,42.5C0,38,3.1,32.4,7,30.2l26.1-15.1c3.9-2.3,10.3-2.3,14.2,0l26.3,15.1C77.6,32.4,81,38,81,42.5v30.2
	c0,4.5-3.4,10.1-7.4,12.4l-26.3,15.1c-3.9,2.3-10.4,2.3-14.3,0L7,85.1c-3.9-2.3-7-7.8-7-12.4V42.5z"/>
<path fill="#FFFFFF" d="M56.4,58.8c-1.1-2.7-2.7-5.1-4.8-7.1c-2.1-2.1-4.4-3.7-7.1-4.8c-2.8-1.2-5.7-1.8-8.7-1.8
	c-3,0-5.9,0.6-8.7,1.8c-2.7,1.1-5.1,2.7-7.1,4.8c-2.1,2.1-3.7,4.4-4.8,7.1c-1.2,2.8-1.8,5.7-1.8,8.7c0,0.6,0,1.3,0.1,1.9L10,69.8
	l6.3,5.4l5.4-6.3L18,69.1c0-0.5-0.1-1-0.1-1.6c0-9.9,8-17.9,17.9-17.9s17.9,8,17.9,17.9c0,9.9-8,17.9-17.9,17.9v0l-28.4,0l7.7,4.5
	l20.7,0v0c3,0,5.9-0.6,8.7-1.8c2.7-1.1,5-2.7,7.1-4.8c2.1-2.1,3.7-4.4,4.8-7.1c1.2-2.8,1.8-5.7,1.8-8.7
	C58.1,64.5,57.6,61.6,56.4,58.8z"/>
<path fill="#FFFFFF" d="M74.8,51.6c0.6-1.8,0.8-3.6,0.7-5.5c-0.1-1.9-0.6-3.7-1.4-5.4c-0.8-1.7-2-3.3-3.5-4.6
	c-1.5-1.3-3.1-2.3-5-2.9c-1.8-0.6-3.6-0.8-5.5-0.7c-1.9,0.1-3.7,0.6-5.4,1.4c-1.7,0.8-3.3,2-4.6,3.5c-1.3,1.5-2.3,3.1-2.9,5
	c-0.4,1.2-0.6,2.4-0.7,3.7c1,0.4,2,0.9,2.9,1.5c-0.1-2.9,0.8-5.9,2.9-8.2c4.2-4.8,11.5-5.2,16.3-1c4.8,4.2,5.2,11.5,1,16.3
	c-0.2,0.3-0.5,0.5-0.7,0.7l-1.7-1.7L67.3,59l5.4,0.1l-1.6-1.6c0.3-0.3,0.6-0.6,0.9-0.9C73.3,55.1,74.2,53.4,74.8,51.6z"/>
<path fill="#FFFFFF" d="M61.6,40.3c-3.3,0-6,2.7-6,6c0,3.3,2.7,6,6,6c3.3,0,6-2.7,6-6C67.6,43,64.9,40.3,61.6,40.3z M60.7,49.1
	l-2.4-1.8l0.9-1.2l1.2,0.9l3.3-4.2l1.2,0.9L60.7,49.1z"/>
<g>
	<polygon fill="#FFFFFF" points="206.3,29.3 206.3,79.3 201.9,79.3 201.9,36.4 183.5,64.4 181.9,64.4 163.4,36.4 163.4,79.3 
		158.9,79.3 158.9,29.3 164,29.3 182.6,57.8 201.1,29.3 	"/>
</g>
<g>
	<path fill="#FFFFFF" d="M107.6,85.3h1.4l5.9,13h-1.6l-1.5-3.4h-7.1l-1.5,3.4h-1.5L107.6,85.3z M111.2,93.6l-2.9-6.6l-3,6.6H111.2z"
		/>
	<path fill="#FFFFFF" d="M122.6,98.6c-0.8,0-1.5-0.1-2.2-0.4c-0.7-0.2-1.2-0.6-1.7-1.1c-0.5-0.5-0.8-1.1-1.1-1.8
		c-0.3-0.7-0.4-1.5-0.4-2.4v-7.5h1.5v7.4c0,1.4,0.4,2.5,1.1,3.2c0.7,0.8,1.7,1.1,2.9,1.1c1.2,0,2.1-0.4,2.9-1.1
		c0.7-0.7,1.1-1.8,1.1-3.2v-7.5h1.5v7.4c0,1-0.1,1.8-0.4,2.5s-0.6,1.3-1.1,1.8s-1,0.8-1.7,1.1C124.2,98.5,123.4,98.6,122.6,98.6z"/>
	<path fill="#FFFFFF" d="M134.9,86.8h-4.4v-1.4h10.2v1.4h-4.4v11.6h-1.5V86.8z"/>
	<path fill="#FFFFFF" d="M148.6,98.6c-1,0-1.9-0.2-2.7-0.5c-0.8-0.4-1.5-0.8-2.1-1.5c-0.6-0.6-1-1.3-1.3-2.1
		c-0.3-0.8-0.5-1.7-0.5-2.5v0c0-0.9,0.2-1.7,0.5-2.6s0.8-1.5,1.4-2.1c0.6-0.6,1.3-1.1,2.1-1.5c0.8-0.4,1.7-0.5,2.7-0.5
		c1,0,1.9,0.2,2.7,0.5c0.8,0.4,1.5,0.8,2.1,1.5c0.6,0.6,1,1.3,1.3,2.1c0.3,0.8,0.5,1.7,0.5,2.5v0c0,0.9-0.2,1.7-0.5,2.6
		s-0.8,1.5-1.4,2.1c-0.6,0.6-1.3,1.1-2.1,1.5C150.5,98.4,149.6,98.6,148.6,98.6z M148.6,97.3c0.7,0,1.4-0.1,2-0.4
		c0.6-0.3,1.2-0.7,1.6-1.1c0.4-0.5,0.8-1,1-1.7s0.4-1.3,0.4-2.1v0c0-0.7-0.1-1.4-0.4-2.1s-0.6-1.2-1.1-1.7c-0.5-0.5-1-0.9-1.6-1.1
		c-0.6-0.3-1.3-0.4-2-0.4c-0.7,0-1.4,0.1-2,0.4s-1.2,0.7-1.6,1.1c-0.4,0.5-0.8,1-1,1.7c-0.3,0.6-0.4,1.3-0.4,2.1v0
		c0,0.7,0.1,1.4,0.4,2.1c0.3,0.6,0.6,1.2,1.1,1.7s1,0.9,1.6,1.1C147.2,97.1,147.9,97.3,148.6,97.3z"/>
	<path fill="#FFFFFF" d="M158.3,85.4h1.5l4.7,7.1l4.7-7.1h1.5v13h-1.5V87.9l-4.7,6.9h-0.1l-4.7-6.9v10.5h-1.4V85.4z"/>
	<path fill="#FFFFFF" d="M179.2,85.3h1.4l5.9,13h-1.6l-1.5-3.4h-7.1l-1.5,3.4h-1.5L179.2,85.3z M182.8,93.6l-2.9-6.6l-3,6.6H182.8z"
		/>
	<path fill="#FFFFFF" d="M192.4,86.8h-4.4v-1.4h10.2v1.4h-4.4v11.6h-1.5V86.8z"/>
	<path fill="#FFFFFF" d="M201.1,85.4h1.5v13h-1.5V85.4z"/>
	<path fill="#FFFFFF" d="M212.4,98.6c-1,0-1.9-0.2-2.7-0.5c-0.8-0.4-1.5-0.8-2.1-1.5c-0.6-0.6-1-1.3-1.3-2.1
		c-0.3-0.8-0.5-1.7-0.5-2.5v0c0-0.9,0.2-1.7,0.5-2.6s0.8-1.5,1.4-2.1c0.6-0.6,1.3-1.1,2.1-1.5c0.8-0.4,1.7-0.5,2.7-0.5
		c1,0,1.9,0.2,2.7,0.5c0.8,0.4,1.5,0.8,2.1,1.5c0.6,0.6,1,1.3,1.3,2.1c0.3,0.8,0.5,1.7,0.5,2.5v0c0,0.9-0.2,1.7-0.5,2.6
		s-0.8,1.5-1.4,2.1c-0.6,0.6-1.3,1.1-2.1,1.5C214.3,98.4,213.4,98.6,212.4,98.6z M212.4,97.3c0.7,0,1.4-0.1,2-0.4
		c0.6-0.3,1.2-0.7,1.6-1.1c0.4-0.5,0.8-1,1-1.7s0.4-1.3,0.4-2.1v0c0-0.7-0.1-1.4-0.4-2.1s-0.6-1.2-1.1-1.7c-0.5-0.5-1-0.9-1.6-1.1
		c-0.6-0.3-1.3-0.4-2-0.4c-0.7,0-1.4,0.1-2,0.4s-1.2,0.7-1.6,1.1c-0.4,0.5-0.8,1-1,1.7c-0.3,0.6-0.4,1.3-0.4,2.1v0
		c0,0.7,0.1,1.4,0.4,2.1c0.3,0.6,0.6,1.2,1.1,1.7s1,0.9,1.6,1.1C211,97.1,211.7,97.3,212.4,97.3z"/>
	<path fill="#FFFFFF" d="M222.1,85.4h1.4l8.2,10.4V85.4h1.4v13h-1.2l-8.4-10.6v10.6h-1.4V85.4z"/>
	<path fill="#FFFFFF" d="M242.3,85.4h9.3v1.4h-7.8v4.6h7v1.3h-7v5.6h-1.5V85.4z"/>
	<path fill="#FFFFFF" d="M254.4,85.4h5.6c0.8,0,1.5,0.1,2.1,0.3c0.6,0.2,1.1,0.5,1.5,1c0.3,0.3,0.6,0.7,0.7,1.1
		c0.2,0.4,0.3,0.9,0.3,1.4v0c0,0.5-0.1,1-0.3,1.5c-0.2,0.4-0.4,0.8-0.7,1.1s-0.7,0.6-1.1,0.8c-0.4,0.2-0.9,0.3-1.4,0.4l4,5.3h-1.8
		l-3.8-5h-3.7v5h-1.5V85.4z M259.9,92c0.5,0,0.9-0.1,1.3-0.2c0.4-0.1,0.8-0.3,1.1-0.5c0.3-0.2,0.5-0.5,0.7-0.8
		c0.2-0.3,0.2-0.7,0.2-1.1v0c0-0.8-0.3-1.4-0.9-1.9s-1.4-0.7-2.4-0.7h-4V92H259.9z"/>
	<path fill="#FFFFFF" d="M272.6,85.3h1.4l5.9,13h-1.6l-1.5-3.4h-7.1l-1.5,3.4h-1.5L272.6,85.3z M276.2,93.6l-2.9-6.6l-3,6.6H276.2z"
		/>
	<path fill="#FFFFFF" d="M282.4,85.4h1.5l4.7,7.1l4.7-7.1h1.5v13h-1.5V87.9l-4.7,6.9h-0.1l-4.7-6.9v10.5h-1.4V85.4z"/>
	<path fill="#FFFFFF" d="M298.5,85.4h9.4v1.3H300v4.4h7.1v1.3H300v4.5h8v1.3h-9.5V85.4z"/>
	<path fill="#FFFFFF" d="M309.9,85.4h1.6l3.7,10.8l3.6-10.8h1.2l3.6,10.8l3.7-10.8h1.5l-4.6,13h-1.2L319.3,88l-3.6,10.5h-1.2
		L309.9,85.4z"/>
	<path fill="#FFFFFF" d="M336.8,98.6c-1,0-1.9-0.2-2.7-0.5c-0.8-0.4-1.5-0.8-2.1-1.5c-0.6-0.6-1-1.3-1.3-2.1
		c-0.3-0.8-0.5-1.7-0.5-2.5v0c0-0.9,0.2-1.7,0.5-2.6s0.8-1.5,1.4-2.1c0.6-0.6,1.3-1.1,2.1-1.5c0.8-0.4,1.7-0.5,2.7-0.5
		c1,0,1.9,0.2,2.7,0.5c0.8,0.4,1.5,0.8,2.1,1.5c0.6,0.6,1,1.3,1.3,2.1c0.3,0.8,0.5,1.7,0.5,2.5v0c0,0.9-0.2,1.7-0.5,2.6
		s-0.8,1.5-1.4,2.1c-0.6,0.6-1.3,1.1-2.1,1.5C338.6,98.4,337.7,98.6,336.8,98.6z M336.8,97.3c0.7,0,1.4-0.1,2-0.4
		c0.6-0.3,1.2-0.7,1.6-1.1c0.4-0.5,0.8-1,1-1.7s0.4-1.3,0.4-2.1v0c0-0.7-0.1-1.4-0.4-2.1s-0.6-1.2-1.1-1.7c-0.5-0.5-1-0.9-1.6-1.1
		c-0.6-0.3-1.3-0.4-2-0.4c-0.7,0-1.4,0.1-2,0.4s-1.2,0.7-1.6,1.1c-0.4,0.5-0.8,1-1,1.7c-0.3,0.6-0.4,1.3-0.4,2.1v0
		c0,0.7,0.1,1.4,0.4,2.1c0.3,0.6,0.6,1.2,1.1,1.7s1,0.9,1.6,1.1C335.4,97.1,336,97.3,336.8,97.3z"/>
	<path fill="#FFFFFF" d="M346.5,85.4h5.6c0.8,0,1.5,0.1,2.1,0.3c0.6,0.2,1.1,0.5,1.5,1c0.3,0.3,0.6,0.7,0.7,1.1
		c0.2,0.4,0.3,0.9,0.3,1.4v0c0,0.5-0.1,1-0.3,1.5c-0.2,0.4-0.4,0.8-0.7,1.1s-0.7,0.6-1.1,0.8c-0.4,0.2-0.9,0.3-1.4,0.4l4,5.3h-1.8
		l-3.8-5h-3.7v5h-1.5V85.4z M351.9,92c0.5,0,0.9-0.1,1.3-0.2c0.4-0.1,0.8-0.3,1.1-0.5c0.3-0.2,0.5-0.5,0.7-0.8
		c0.2-0.3,0.2-0.7,0.2-1.1v0c0-0.8-0.3-1.4-0.9-1.9s-1.4-0.7-2.4-0.7h-4V92H351.9z"/>
	<path fill="#FFFFFF" d="M359.9,85.4h1.5v7.7l7.4-7.7h1.9l-5.6,5.7l5.8,7.3h-1.8l-5-6.3l-2.8,2.8v3.5h-1.5V85.4z"/>
</g>
<g>
	<polygon fill="#FFFFFF" points="252,75 252,79.3 216.4,79.3 216.4,29.3 251.1,29.3 251.1,33.6 220.9,33.6 220.9,52.1 256,52.1 
		256,56.2 220.9,56.2 220.9,75 	"/>
</g>
<g>
	<polygon fill="#FFFFFF" points="298.8,29.4 298.8,33.5 281,33.5 281,79.3 276.5,79.3 276.5,33.5 258.7,33.5 258.7,29.4 	"/>
</g>
<g>
	<polygon fill="#FFFFFF" points="382.1,41.6 382.1,42 382,42.2 370.5,59.4 370.5,79.3 366,79.3 366,59.4 355.3,43.3 355.3,42.9 
		355.7,42.8 360.3,42.8 368.3,55 377.1,41.6 	"/>
</g>
<path fill="#FFFFFF" d="M328.4,60.4c4.7-0.2,8.6-1.7,11.4-4.5c2.7-2.8,4.2-6.6,4.2-10.9c-0.1-7.6-5.3-15.7-16.5-15.7h-22v27h-9.3
	v4.3h9.3v18.6h4.5V60.7h1v0h12l17,18.7h6L328.4,60.4z M310.9,56.4h-1V33.6h17.5c3.5,0,6.4,1.1,8.5,3.3c2,2.1,3.2,5,3.2,8.1
	c-0.1,7.4-4.4,11.4-12.1,11.4H310.9z"/>
<g>
	<linearGradient id="SVGID_1_" gradientUnits="userSpaceOnUse" x1="342.3333" y1="16.1894" x2="368.645" y2="57.5475">
		<stop  offset="0" style="stop-color:#4FB548"/>
		<stop  offset="1.654103e-02" style="stop-color:#4FB548"/>
		<stop  offset="0.4973" style="stop-color:#4FB548"/>
		<stop  offset="0.5013" style="stop-color:#4FB548"/>
		<stop  offset="0.6196" style="stop-color:#4FB548"/>
		<stop  offset="0.6213" style="stop-color:#4FB448"/>
		<stop  offset="0.7117" style="stop-color:#3D9A43"/>
		<stop  offset="0.8039" style="stop-color:#30873F"/>
		<stop  offset="0.8989" style="stop-color:#297C3D"/>
		<stop  offset="1" style="stop-color:#26783C"/>
	</linearGradient>
	<polygon fill="url(#SVGID_1_)" points="340.8,26 346.4,26 373.5,52.8 367.1,61 	"/>
	<polygon fill="#56B754" points="361.4,53.5 416.2,0 416.2,3.6 371.5,58.4 368.3,62.6 	"/>
</g>
<path fill="#FFFFFF" d="M47.1,64.7c-0.1-0.4-0.5-0.6-0.9-0.4h0c-1,0.6-2.4,0.5-3.1-0.4c-1.1-1.2-0.7-3,0.6-3.7
	c0.4-0.2,0.5-0.8,0.1-1.1c-1.3-1.2-2.8-2.1-4.5-2.6c-0.4-0.1-0.8,0.2-0.8,0.6v0c0,1.2-0.8,2.3-1.9,2.5c-1.6,0.3-2.9-0.9-2.9-2.4
	c0-0.5-0.5-0.8-0.9-0.7c-1.7,0.5-3.2,1.4-4.5,2.6c-0.3,0.3-0.2,0.7,0.1,0.9c1,0.6,1.6,1.8,1.2,2.9C29,64.4,27.3,65,26,64.2
	c-0.4-0.2-1,0-1.1,0.5c-0.2,0.8-0.3,1.7-0.3,2.6c0,0.9,0.1,1.7,0.3,2.6c0.1,0.4,0.5,0.6,0.9,0.4c1-0.6,2.4-0.5,3.1,0.4
	c1.1,1.2,0.7,3-0.6,3.7c-0.4,0.2-0.5,0.8-0.1,1.1c1.3,1.2,2.8,2.1,4.5,2.6c0.4,0.1,0.8-0.2,0.8-0.6c0-1.2,0.8-2.3,1.9-2.5
	c1.6-0.3,2.9,0.9,2.9,2.4c0,0.5,0.5,0.8,0.9,0.7c1.5-0.5,3.2-1.1,4.5-2.1c0.5-0.4,0.4-1.2-0.2-1.5c-1.3-0.8-1.6-2.6-0.6-3.7
	c0.8-0.9,2.1-1,3.1-0.4c0.4,0.2,0.8,0,0.9-0.4c0.2-0.9,0.3-1.8,0.3-2.7C47.4,66.4,47.3,65.6,47.1,64.7z M36,72.4
	c-2.8,0-5.1-2.3-5.1-5.1c0-2.8,2.3-5.1,5.1-5.1c2.8,0,5.1,2.3,5.1,5.1C41.1,70.1,38.8,72.4,36,72.4z"/>
<g>
	<path fill="#FFFFFF" d="M146.6,71.1c3.6-4.5,5.7-10.6,5.7-16.8c0-7.5-2.5-14.1-7.1-18.8c-4.5-4.5-10.7-6.9-18.1-6.9
		c-17.3,0-25.1,12.7-25.3,25.2c-0.1,7.6,2.4,14.3,7,19c4.5,4.5,10.8,6.9,18.2,6.9c6.6,0,12.5-2,16.7-5.6l6,5.7l2.9-3L146.6,71.1z
		 M127,75.5c-6.1,0-11.3-2-15-5.7c-3.8-3.8-5.8-9.3-5.8-15.6v-0.4C106.2,41.8,115,33,127,33c9.6,0,20.8,5.6,20.8,21.3
		C147.8,64.9,141.4,75.5,127,75.5z"/>
</g>
</svg>
