<svg xmlns="http://www.w3.org/2000/svg" xmlns:xlink="http://www.w3.org/1999/xlink" version="1.1" width="416.2080078125" height="101.89299774169922" enable-background="new 0 0 416.208 101.893" xml:space="preserve"><rect id="backgroundrect" width="100%" height="100%" x="0" y="0" fill="none" stroke="none"/>



















<g class="currentLayer"><title>Layer 1</title><path fill="#56B753" d="M0,42.528c0-4.536,3.072-10.104,7-12.372l26.078-15.098c3.929-2.268,10.322-2.268,14.25,0l26.339,15.098  C77.596,32.424,81,37.992,81,42.528v30.195c0,4.536-3.422,10.104-7.35,12.372l-26.253,15.097c-3.929,2.268-10.409,2.268-14.337,0  L7.026,85.094C3.098,82.826,0,77.259,0,72.723V42.528z" id="svg_1" class=""/><g id="svg_2" class="">
	
		<image overflow="visible" opacity="0.1" width="146" height="136" transform="matrix(0.24,0,0,0.24,42.748,28.5347) " id="svg_3" xlink:href="6554A2855B055DFB.png">
	</image>
	<g id="svg_4">
		<path fill="#FFFFFF" d="M74.846,51.59c0.596-1.77,0.84-3.616,0.727-5.487c-0.113-1.872-0.579-3.675-1.384-5.36    c-0.834-1.745-1.997-3.285-3.456-4.577c-1.459-1.292-3.128-2.26-4.961-2.877c-1.77-0.596-3.616-0.84-5.487-0.727    c-1.872,0.114-3.675,0.58-5.36,1.384c-1.745,0.834-3.284,1.998-4.576,3.457c-1.292,1.459-2.26,3.128-2.876,4.961    c-0.405,1.201-0.646,2.436-0.724,3.691c1,0.425,1.965,0.914,2.891,1.46c-0.136-2.891,0.812-5.853,2.883-8.191    c4.221-4.765,11.526-5.212,16.292-0.991c4.765,4.221,5.208,11.532,0.987,16.298c-0.225,0.254-0.459,0.496-0.701,0.726l-1.654-1.73    l-0.121,5.35l5.35,0.122l-1.574-1.647c0.3-0.286,0.59-0.585,0.868-0.899C73.261,55.093,74.229,53.423,74.846,51.59z" id="svg_5"/>
	</g>
</g><g id="svg_6" class="">
	<defs>
		<path id="SVGID_1_" d="M0,42.528c0-4.536,3.072-10.104,7-12.372l26.078-15.098c3.929-2.268,10.322-2.268,14.25,0l26.339,15.098    C77.596,32.424,81,37.992,81,42.528v30.195c0,4.536-3.422,10.104-7.35,12.372l-26.253,15.097c-3.929,2.268-10.409,2.268-14.337,0    L7.026,85.094C3.098,82.826,0,77.259,0,72.723V42.528z"/>
	</defs>
	<clipPath id="SVGID_2_">
		<use xlink:href="#SVGID_1_" overflow="visible" id="svg_7"/>
	</clipPath>
	<g clip-path="url(#SVGID_2_)" id="svg_8">
		
			<image overflow="visible" opacity="0.1" width="237" height="212" transform="matrix(0.24,0,0,0.24,3.4165,41.1733) " id="svg_9" xlink:href="6554A2855B055DF9.png">
		</image>
		<g id="svg_10">
			<path fill="#FFFFFF" d="M56.39,58.826c-1.126-2.662-2.737-5.053-4.79-7.105s-4.442-3.664-7.105-4.79     c-2.757-1.167-5.685-1.758-8.702-1.758c-3.017,0-5.944,0.591-8.702,1.758c-2.662,1.126-5.052,2.737-7.105,4.79     c-2.052,2.052-3.664,4.443-4.79,7.105c-1.166,2.757-1.757,5.685-1.757,8.702c0,0.649,0.028,1.293,0.082,1.933l-3.513,0.293     l6.324,5.35l5.35-6.324l-3.691,0.308c-0.045-0.514-0.068-1.034-0.068-1.56c0-9.854,8.017-17.871,17.871-17.871     c9.854,0,17.877,8.017,17.877,17.871c0,9.852-8.044,17.868-17.859,17.871v-0.013L7.417,85.417l7.733,4.465l20.662-0.041v0.041     c3.013-0.001,5.935-0.592,8.69-1.758c2.662-1.126,5.049-2.737,7.102-4.79s3.662-4.443,4.788-7.105     c1.167-2.757,1.757-5.685,1.757-8.702S57.557,61.583,56.39,58.826z" id="svg_11"/>
		</g>
	</g>
</g><g id="svg_12" class="">
	
		<image overflow="visible" opacity="0.1" width="76" height="76" transform="matrix(0.24,0,0,0.24,51.543,36.3169) " id="svg_13" xlink:href="6554A2855B055DFF.png">
	</image>
	<g id="svg_14">
		<path fill="#FFFFFF" d="M61.558,40.317c-3.322,0-6.015,2.693-6.015,6.015c0,3.322,2.693,6.016,6.015,6.016    s6.016-2.693,6.016-6.016C67.574,43.01,64.88,40.317,61.558,40.317z M60.715,49.112l-2.393-1.835l0.916-1.195l1.224,0.938    l3.342-4.17l1.175,0.942L60.715,49.112z" id="svg_15"/>
	</g>
</g><g id="svg_16" class="" fill="#ffffff" fill-opacity="1">
	<path fill="#ffffff" d="M165.021,86.275h0.933l6.083,13.155h-1.064l-1.66-3.657h-7.707l-1.661,3.657h-1.008L165.021,86.275z    M168.902,94.896l-3.434-7.558l-3.452,7.558H168.902z" id="svg_17" fill-opacity="1"/>
	<path fill="#ffffff" d="M179.949,99.636c-0.783,0-1.502-0.121-2.155-0.364c-0.653-0.242-1.22-0.603-1.698-1.082   c-0.479-0.479-0.849-1.066-1.11-1.764c-0.261-0.696-0.392-1.505-0.392-2.426v-7.632h0.97v7.539c0,1.555,0.388,2.751,1.167,3.591   c0.776,0.84,1.862,1.26,3.255,1.26c0.659,0,1.257-0.1,1.792-0.298c0.535-0.199,0.992-0.498,1.372-0.896   c0.379-0.398,0.671-0.895,0.877-1.493c0.205-0.597,0.308-1.287,0.308-2.071v-7.632h0.97v7.52c0,0.933-0.131,1.757-0.392,2.472   c-0.261,0.716-0.628,1.316-1.101,1.801c-0.473,0.485-1.036,0.852-1.689,1.101C181.47,99.511,180.745,99.636,179.949,99.636z" id="svg_18" fill-opacity="1"/>
	<path fill="#ffffff" d="M192.602,87.246h-4.554v-0.877h10.077v0.877h-4.553v12.185h-0.97V87.246z" id="svg_19" fill-opacity="1"/>
	<path fill="#ffffff" d="M206.018,99.655c-0.996,0-1.894-0.184-2.696-0.551c-0.803-0.367-1.49-0.858-2.062-1.474   c-0.572-0.616-1.014-1.328-1.325-2.137c-0.31-0.808-0.466-1.661-0.466-2.556v-0.038c0-0.896,0.159-1.751,0.476-2.566   c0.317-0.814,0.762-1.533,1.334-2.155c0.572-0.622,1.263-1.117,2.071-1.483s1.71-0.551,2.706-0.551   c0.982,0,1.879,0.184,2.688,0.551s1.498,0.858,2.07,1.474s1.014,1.329,1.326,2.137c0.31,0.809,0.467,1.661,0.467,2.556v0.038   c0,0.896-0.159,1.751-0.477,2.566c-0.317,0.814-0.762,1.533-1.334,2.155c-0.572,0.623-1.267,1.117-2.082,1.483   C207.898,99.471,207,99.655,206.018,99.655z M206.055,98.778c0.809,0,1.552-0.153,2.23-0.457c0.678-0.306,1.262-0.722,1.754-1.251   c0.49-0.528,0.873-1.147,1.147-1.856c0.273-0.709,0.41-1.468,0.41-2.277v-0.038c0-0.808-0.14-1.57-0.42-2.286   c-0.279-0.715-0.665-1.337-1.156-1.866c-0.492-0.528-1.08-0.948-1.765-1.26c-0.684-0.311-1.43-0.466-2.238-0.466   c-0.809,0-1.552,0.153-2.23,0.458c-0.678,0.305-1.263,0.721-1.754,1.25s-0.874,1.147-1.147,1.857   c-0.274,0.709-0.411,1.467-0.411,2.276v0.038c0,0.809,0.14,1.571,0.42,2.286s0.665,1.337,1.157,1.866   c0.491,0.529,1.079,0.949,1.763,1.259C204.5,98.622,205.246,98.778,206.055,98.778z" id="svg_20" fill-opacity="1"/>
	<path fill="#ffffff" d="M215.907,86.369h0.914l5.243,7.725l5.244-7.725h0.914v13.062h-0.971V88.085l-5.168,7.52h-0.075l-5.169-7.52   v11.345h-0.933V86.369z" id="svg_21" fill-opacity="1"/>
	<path fill="#ffffff" d="M237.068,86.275h0.933l6.083,13.155h-1.063l-1.661-3.657h-7.706l-1.661,3.657h-1.008L237.068,86.275z    M240.949,94.896l-3.434-7.558l-3.452,7.558H240.949z" id="svg_22" fill-opacity="1"/>
	<path fill="#ffffff" d="M250.467,87.246h-4.555v-0.877h10.077v0.877h-4.553v12.185h-0.97V87.246z" id="svg_23" fill-opacity="1"/>
	<path fill="#ffffff" d="M259.068,86.369h0.971v13.062h-0.971V86.369z" id="svg_24" fill-opacity="1"/>
	<path fill="#ffffff" d="M270.021,99.655c-0.995,0-1.894-0.184-2.695-0.551c-0.803-0.367-1.49-0.858-2.062-1.474   c-0.572-0.616-1.014-1.328-1.325-2.137c-0.311-0.808-0.466-1.661-0.466-2.556v-0.038c0-0.896,0.158-1.751,0.476-2.566   c0.317-0.814,0.761-1.533,1.334-2.155c0.571-0.622,1.263-1.117,2.071-1.483s1.71-0.551,2.705-0.551   c0.982,0,1.879,0.184,2.688,0.551s1.498,0.858,2.071,1.474c0.572,0.616,1.014,1.329,1.325,2.137   c0.311,0.809,0.467,1.661,0.467,2.556v0.038c0,0.896-0.158,1.751-0.477,2.566c-0.316,0.814-0.762,1.533-1.334,2.155   c-0.572,0.623-1.266,1.117-2.081,1.483C271.903,99.471,271.004,99.655,270.021,99.655z M270.059,98.778   c0.809,0,1.553-0.153,2.23-0.457c0.678-0.306,1.263-0.722,1.754-1.251c0.491-0.528,0.874-1.147,1.148-1.856   c0.273-0.709,0.41-1.468,0.41-2.277v-0.038c0-0.808-0.141-1.57-0.42-2.286s-0.666-1.337-1.157-1.866   c-0.491-0.528-1.079-0.948-1.764-1.26c-0.685-0.311-1.431-0.466-2.239-0.466s-1.552,0.153-2.23,0.458   c-0.678,0.305-1.262,0.721-1.754,1.25c-0.49,0.529-0.873,1.147-1.146,1.857c-0.274,0.709-0.411,1.467-0.411,2.276v0.038   c0,0.809,0.14,1.571,0.42,2.286s0.665,1.337,1.157,1.866c0.491,0.529,1.079,0.949,1.764,1.259   C268.504,98.622,269.25,98.778,270.059,98.778z" id="svg_25" fill-opacity="1"/>
	<path fill="#ffffff" d="M279.912,86.369h0.914l9.012,11.364V86.369h0.934v13.062h-0.728l-9.199-11.606v11.606h-0.933V86.369z" id="svg_26" fill-opacity="1"/>
	<path fill="#ffffff" d="M304.674,99.618c-1.045,0-1.987-0.175-2.827-0.522c-0.84-0.349-1.651-0.871-2.435-1.568l0.635-0.728   c0.359,0.335,0.718,0.625,1.072,0.868c0.354,0.242,0.719,0.441,1.092,0.597c0.373,0.155,0.765,0.274,1.176,0.354   c0.41,0.081,0.857,0.122,1.343,0.122s0.933-0.065,1.345-0.196c0.409-0.13,0.758-0.311,1.044-0.541   c0.286-0.23,0.51-0.504,0.673-0.821c0.16-0.317,0.242-0.663,0.242-1.036v-0.038c0-0.348-0.054-0.659-0.159-0.933   c-0.106-0.274-0.298-0.522-0.579-0.746c-0.279-0.224-0.656-0.426-1.129-0.607c-0.473-0.18-1.082-0.345-1.828-0.494   c-0.783-0.162-1.455-0.352-2.016-0.569c-0.559-0.217-1.018-0.472-1.371-0.766c-0.354-0.292-0.613-0.631-0.774-1.017   c-0.162-0.386-0.243-0.827-0.243-1.325v-0.038c0-0.485,0.105-0.936,0.318-1.353c0.211-0.416,0.503-0.78,0.877-1.091   c0.372-0.312,0.814-0.554,1.324-0.729c0.51-0.174,1.07-0.261,1.68-0.261c0.945,0,1.764,0.13,2.453,0.392   c0.691,0.261,1.365,0.66,2.025,1.194l-0.616,0.765c-0.622-0.535-1.247-0.915-1.876-1.139c-0.627-0.223-1.303-0.335-2.023-0.335   c-0.485,0-0.924,0.065-1.316,0.196c-0.391,0.13-0.728,0.308-1.008,0.532c-0.279,0.223-0.494,0.485-0.643,0.784   c-0.15,0.298-0.225,0.616-0.225,0.951v0.037c0,0.349,0.053,0.663,0.158,0.942c0.105,0.28,0.299,0.535,0.579,0.766   c0.279,0.23,0.668,0.438,1.166,0.625c0.497,0.187,1.132,0.362,1.903,0.522c1.518,0.312,2.612,0.75,3.284,1.316   c0.673,0.566,1.008,1.328,1.008,2.286v0.037c0,0.522-0.109,1.005-0.327,1.446c-0.217,0.442-0.516,0.818-0.896,1.129   s-0.833,0.553-1.362,0.728C305.89,99.53,305.309,99.618,304.674,99.618z" id="svg_27" fill-opacity="1"/>
	<path fill="#ffffff" d="M315.533,87.246h-4.553v-0.877h10.078v0.877h-4.553v12.185h-0.973V87.246z" id="svg_28" fill-opacity="1"/>
	<path fill="#ffffff" d="M329.155,99.636c-0.784,0-1.502-0.121-2.155-0.364c-0.652-0.242-1.219-0.603-1.697-1.082   c-0.479-0.479-0.85-1.066-1.11-1.764c-0.261-0.696-0.392-1.505-0.392-2.426v-7.632h0.971v7.539c0,1.555,0.389,2.751,1.166,3.591   s1.861,1.26,3.256,1.26c0.658,0,1.256-0.1,1.792-0.298c0.534-0.199,0.991-0.498,1.371-0.896c0.38-0.398,0.671-0.895,0.876-1.493   c0.207-0.597,0.309-1.287,0.309-2.071v-7.632h0.971v7.52c0,0.933-0.131,1.757-0.393,2.472c-0.261,0.716-0.629,1.316-1.101,1.801   c-0.472,0.485-1.036,0.852-1.688,1.101C330.677,99.511,329.953,99.636,329.155,99.636z" id="svg_29" fill-opacity="1"/>
	<path fill="#ffffff" d="M338.188,86.369h4.348c1.021,0,1.956,0.165,2.809,0.494c0.852,0.33,1.586,0.787,2.201,1.372   c0.617,0.585,1.092,1.272,1.428,2.062c0.338,0.791,0.504,1.646,0.504,2.565v0.038c0,0.921-0.166,1.78-0.504,2.576   c-0.336,0.796-0.811,1.486-1.428,2.071c-0.615,0.584-1.35,1.044-2.201,1.38c-0.853,0.336-1.787,0.504-2.809,0.504h-4.348V86.369z    M339.158,87.246v11.308h3.377c0.908,0,1.73-0.146,2.463-0.44c0.734-0.293,1.356-0.692,1.867-1.197   c0.51-0.506,0.904-1.099,1.184-1.779c0.279-0.681,0.422-1.413,0.422-2.2v-0.038c0-0.774-0.143-1.503-0.422-2.19   s-0.674-1.285-1.184-1.798c-0.511-0.511-1.133-0.917-1.867-1.216c-0.732-0.3-1.555-0.45-2.463-0.45H339.158z" id="svg_30" fill-opacity="1"/>
	<path fill="#ffffff" d="M352.91,86.369h0.971v13.062h-0.971V86.369z" id="svg_31" fill-opacity="1"/>
	<path fill="#ffffff" d="M363.863,99.655c-0.994,0-1.893-0.184-2.696-0.551c-0.802-0.367-1.489-0.858-2.062-1.474   c-0.572-0.616-1.014-1.328-1.325-2.137c-0.312-0.808-0.466-1.661-0.466-2.556v-0.038c0-0.896,0.158-1.751,0.475-2.566   c0.318-0.814,0.763-1.533,1.336-2.155c0.572-0.622,1.262-1.117,2.07-1.483s1.711-0.551,2.707-0.551   c0.982,0,1.878,0.184,2.686,0.551c0.81,0.367,1.499,0.858,2.072,1.474c0.572,0.616,1.014,1.329,1.325,2.137   c0.31,0.809,0.466,1.661,0.466,2.556v0.038c0,0.896-0.159,1.751-0.477,2.566c-0.316,0.814-0.761,1.533-1.333,2.155   c-0.573,0.623-1.267,1.117-2.081,1.483C365.746,99.471,364.847,99.655,363.863,99.655z M363.902,98.778   c0.808,0,1.551-0.153,2.229-0.457c0.68-0.306,1.262-0.722,1.754-1.251c0.492-0.528,0.875-1.147,1.148-1.856   c0.273-0.709,0.41-1.468,0.41-2.277v-0.038c0-0.808-0.141-1.57-0.42-2.286c-0.28-0.715-0.666-1.337-1.156-1.866   c-0.492-0.528-1.08-0.948-1.764-1.26c-0.685-0.311-1.43-0.466-2.24-0.466c-0.807,0-1.551,0.153-2.229,0.458   c-0.679,0.305-1.264,0.721-1.754,1.25c-0.492,0.529-0.875,1.147-1.148,1.857c-0.273,0.709-0.41,1.467-0.41,2.276v0.038   c0,0.809,0.141,1.571,0.42,2.286s0.664,1.337,1.156,1.866c0.49,0.529,1.08,0.949,1.764,1.259   C362.347,98.622,363.092,98.778,363.902,98.778z" id="svg_32" fill-opacity="1"/>
</g><g id="svg_33" class="" fill="#ffffff" fill-opacity="1">
	<polygon fill="#ffffff" points="206.293,29.345 206.293,79.325 201.863,79.325 201.863,36.365 183.533,64.395 181.893,64.395    163.423,36.355 163.423,79.325 158.923,79.325 158.923,29.345 163.963,29.345 182.643,57.775 201.103,29.345  " id="svg_34" fill-opacity="1"/>
</g><g id="svg_35" class="" fill="#ffffff" fill-opacity="1">
	<polygon fill="#ffffff" points="251.973,74.965 251.973,79.325 216.434,79.325 216.434,29.345 251.123,29.345 251.123,33.635    220.863,33.635 220.863,52.085 256,52.085 256,56.235 220.863,56.235 220.863,74.965  " id="svg_36" fill-opacity="1"/>
</g><g id="svg_37" class="" fill="#ffffff" fill-opacity="1">
	<polygon fill="#ffffff" points="298.844,29.415 298.844,33.495 281.043,33.495 281.043,79.325 276.543,79.325 276.543,33.495    258.732,33.495 258.732,29.415  " id="svg_38" fill-opacity="1"/>
</g><g id="svg_39" class="" fill="#ffffff" fill-opacity="1">
	<polygon fill="#ffffff" points="382.083,41.565 382.083,42.025 382.033,42.185 370.503,59.365 370.503,79.325 366.003,79.325    366.003,59.365 355.325,43.345 355.325,42.885 355.675,42.815 360.305,42.815 368.253,54.955 377.113,41.565  " id="svg_40" fill-opacity="1"/>
</g><path fill="#ffffff" d="M328.423,60.445c4.7-0.15,8.62-1.69,11.38-4.47c2.721-2.75,4.2-6.63,4.16-10.93  c-0.07-7.56-5.27-15.7-16.54-15.7h-22.021v27.03h-9.268v4.313h9.268v18.636h4.5V60.688h0.982v-0.023h11.959l17.029,18.66h5.95  L328.423,60.445z M310.885,56.375h-0.982v-22.81h17.521c3.479,0,6.421,1.13,8.53,3.26c2.05,2.07,3.199,5.04,3.16,8.15  c-0.07,7.35-4.37,11.4-12.11,11.4H310.885z" id="svg_41" class="" fill-opacity="1"/><g id="svg_42" class="" fill="#ffffff" fill-opacity="1">
	<linearGradient id="SVGID_3_" x1="0.04823358356952667" y1="-0.2790174186229706" x2="0.852992832660675" y2="0.9010244011878967">
		<stop offset="0" style="stop-color:#4FB548"/>
		<stop offset="0.0165" style="stop-color:#4FB548"/>
		<stop offset="0.4973" style="stop-color:#4FB548"/>
		<stop offset="0.5013" style="stop-color:#4FB548"/>
		<stop offset="0.6196" style="stop-color:#4FB548"/>
		<stop offset="0.6467" style="stop-color:#49A946"/>
		<stop offset="0.731" style="stop-color:#3A9342"/>
		<stop offset="0.8172" style="stop-color:#31843F"/>
		<stop offset="0.9057" style="stop-color:#2B7C3D"/>
		<stop offset="1" style="stop-color:#29793D"/>
	</linearGradient>
	<polygon fill="#ffffff" points="340.756,25.968 346.42,25.97 373.451,52.845 367.092,61.016  " id="svg_43" fill-opacity="1"/>
	<polygon fill="#ffffff" points="361.439,53.499 416.208,0 416.208,3.625 371.461,58.375 368.26,62.58  " id="svg_44" fill-opacity="1"/>
</g><g id="svg_45" class="">
	
		<image overflow="visible" opacity="0.1" width="120" height="117" transform="matrix(0.24,0,0,0.24,20.6128,52.375) " id="svg_46" xlink:href="6554A2855B055DF8.png">
	</image>
	<g id="svg_47">
		<path fill="#FFFFFF" d="M47.065,64.731c-0.089-0.385-0.527-0.575-0.87-0.377l0,0c-1.018,0.587-2.351,0.458-3.13-0.422    c-1.056-1.19-0.71-2.989,0.594-3.742c0.413-0.238,0.483-0.81,0.138-1.137c-1.262-1.196-2.796-2.105-4.502-2.624    c-0.376-0.114-0.757,0.165-0.757,0.558l0,0c0,1.175-0.779,2.264-1.931,2.5c-1.559,0.319-2.944-0.879-2.944-2.385    c0-0.484-0.468-0.836-0.932-0.697c-1.707,0.511-3.242,1.416-4.509,2.604c-0.284,0.267-0.232,0.733,0.105,0.928    c1.018,0.587,1.571,1.807,1.2,2.922c-0.503,1.51-2.233,2.11-3.538,1.356c-0.416-0.24-0.951-0.016-1.063,0.451    c-0.204,0.846-0.314,1.729-0.314,2.638c0,0.885,0.103,1.746,0.294,2.572c0.089,0.385,0.527,0.575,0.87,0.377    c1.018-0.588,2.35-0.458,3.13,0.421c1.056,1.191,0.71,2.989-0.594,3.742c-0.413,0.238-0.483,0.81-0.138,1.137    c1.262,1.196,2.796,2.105,4.502,2.624c0.376,0.114,0.757-0.165,0.757-0.558c0-1.175,0.779-2.264,1.931-2.5    c1.559-0.319,2.943,0.879,2.943,2.385c0,0.484,0.465,0.837,0.928,0.698c1.513-0.452,3.166-1.132,4.468-2.089    c0.534-0.392,0.439-1.22-0.161-1.501c-1.304-0.753-1.65-2.552-0.594-3.742c0.78-0.879,2.112-1.009,3.13-0.422    c0.366,0.211,0.833,0.013,0.936-0.396c0.221-0.88,0.341-1.8,0.341-2.75C47.359,66.419,47.257,65.558,47.065,64.731z     M35.986,72.382c-2.804,0-5.078-2.273-5.078-5.078s2.274-5.078,5.078-5.078c2.805,0,5.079,2.273,5.079,5.078    S38.791,72.382,35.986,72.382z" id="svg_48"/>
	</g>
</g><g id="svg_49" class="" stroke="#ffffff" stroke-opacity="1" opacity="0.99" fill="#ffffff" fill-opacity="1">
	<path fill="#ffffff" d="M146.571,71.125c3.59-4.52,5.65-10.62,5.65-16.79c0.04-7.48-2.47-14.14-7.06-18.76   c-4.46-4.49-10.74-6.86-18.14-6.86c-17.26,0-25.13,12.65-25.27,25.19c-0.07,7.58,2.43,14.33,7.05,19   c4.47,4.52,10.77,6.91,18.22,6.91c6.57,0,12.5-1.98,16.74-5.58l5.959,5.675l2.88-2.96L146.571,71.125z M127.021,75.525   c-6.14,0-11.32-1.97-15-5.68c-3.77-3.82-5.83-9.34-5.83-15.57v-0.36c0-12.12,8.76-20.91,20.83-20.91c9.58,0,20.77,5.59,20.77,21.33   C147.791,64.885,141.371,75.525,127.021,75.525z" id="svg_50" stroke="#ffffff" stroke-opacity="1" opacity="0.99" fill-opacity="1"/>
</g><g id="svg_51" class="">
</g><g id="svg_52" class="">
</g><g id="svg_53" class="">
</g><g id="svg_54" class="">
</g><g id="svg_55" class="">
</g><g id="svg_56" class="">
</g></g></svg>