<?xml version="1.0" encoding="UTF-8"?>
<svg width="978px" height="233px" viewBox="0 0 978 233" version="1.1" xmlns="http://www.w3.org/2000/svg" xmlns:xlink="http://www.w3.org/1999/xlink">
    <!-- Generator: Sketch 52.5 (67469) - http://www.bohemiancoding.com/sketch -->
    <title>QMetry Automation Framework Logo WHITE</title>
    <desc>Created with Sketch.</desc>
    <g id="QMetry-Automation-Framework" stroke="none" stroke-width="1" fill="none" fill-rule="evenodd">
        <g id="QMetry-Automation-Framework-Logo-WHITE-1024" transform="translate(-23.000000, -395.000000)">
            <g id="QMetry-Automation-Framework-Logo-WHITE" transform="translate(23.000000, 395.000000)">
                <path d="M440.347533,205.967146 L442.774333,205.967146 L453.222916,229.060844 L450.438164,229.060844 L447.752911,223.000417 L435.27067,223.000417 L432.551442,229.060844 L429.89895,229.060844 L440.347533,205.967146 Z M446.733655,220.675271 L441.525744,208.98037 L436.286285,220.675271 L446.733655,220.675271 Z" id="Shape" fill="#FFFFFF" fill-rule="nonzero"></path>
                <path d="M456.565831,219.462943 L456.565831,206.132188 L459.154012,206.132188 L459.154012,219.299115 C459.154012,224.24551 461.773742,227.029375 466.162608,227.029375 C470.387665,227.029375 473.072918,224.480938 473.072918,219.462943 L473.072918,206.132188 L475.661099,206.132188 L475.661099,219.266349 C475.661099,225.949323 471.829184,229.421266 466.097084,229.421266 C460.434149,229.421266 456.565831,225.955391 456.565831,219.462943 Z" id="Path" fill="#FFFFFF"></path>
                <polygon id="Path" fill="#FFFFFF" points="487.856978 208.521651 480.159171 208.521651 480.159171 206.132188 498.170873 206.132188 498.170873 208.521651 490.473067 208.521651 490.473067 229.060844 487.856978 229.060844"></polygon>
                <path d="M500.435077,217.662047 L500.435077,217.596516 C500.363498,213.37958 502.567733,209.450755 506.203759,207.314429 C509.839784,205.178102 514.344286,205.165245 517.992444,207.280781 C521.640602,209.396317 523.867224,213.312495 523.819712,217.529771 L523.819712,217.596516 C523.891117,221.813483 521.686688,225.742239 518.050534,227.878404 C514.41438,230.01457 509.909843,230.027193 506.261777,227.91144 C502.613711,225.795688 500.387302,221.879348 500.435077,217.662047 Z M521.133246,217.662047 L521.133246,217.596516 C521.227862,215.132015 520.319987,212.734336 518.616831,210.950718 C516.913674,209.167099 514.560588,208.149759 512.094633,208.130891 C509.641066,208.135825 507.295729,209.141734 505.600867,210.916049 C503.906006,212.690365 503.008363,215.079465 503.115476,217.530984 L503.115476,217.597729 C503.020855,220.062438 503.928894,222.460304 505.632314,224.24396 C507.335734,226.027615 509.689136,227.044813 512.155303,227.063354 C514.608879,227.058104 516.954095,226.051885 518.648729,224.277338 C520.343363,222.502792 521.240691,220.113562 521.133246,217.662047 Z" id="Shape" fill="#FFFFFF" fill-rule="nonzero"></path>
                <polygon id="Path" fill="#FFFFFF" points="529.296998 206.132188 531.916727 206.132188 540.268556 218.643802 548.621598 206.132188 551.241328 206.132188 551.241328 229.060844 548.648293 229.060844 548.648293 210.487589 540.296464 222.772271 540.16663 222.772271 531.814801 210.5155 531.814801 229.05599 529.292144 229.05599"></polygon>
                <path d="M566.217104,205.967146 L568.643903,205.967146 L579.091273,229.060844 L576.307734,229.060844 L573.621268,223.000417 L561.146308,223.000417 L558.428293,229.060844 L555.774588,229.060844 L566.217104,205.967146 Z M572.603226,220.675271 L567.396529,208.98037 L562.155856,220.675271 L572.603226,220.675271 Z" id="Shape" fill="#FFFFFF" fill-rule="nonzero"></path>
                <polygon id="Path" fill="#FFFFFF" points="586.725983 208.521651 579.02939 208.521651 579.02939 206.132188 597.043519 206.132188 597.043519 208.521651 589.346926 208.521651 589.346926 229.060844 586.725983 229.060844"></polygon>
                <polygon id="Path" fill="#FFFFFF" points="602.125236 206.132188 604.713417 206.132188 604.713417 229.060844 602.125236 229.060844"></polygon>
                <path d="M610.410328,217.662047 L610.410328,217.596516 C610.35721,213.391415 612.565694,209.481582 616.194361,207.356639 C619.823028,205.231695 624.313067,205.218881 627.953801,207.323077 C631.594535,209.427273 633.825295,213.324436 633.796176,217.529771 L633.796176,217.596516 C633.849139,221.80166 631.640467,225.711444 628.011664,227.836238 C624.382862,229.961032 619.892772,229.973614 616.252122,227.86919 C612.611471,225.764766 610.380927,221.867422 610.410328,217.662047 Z M631.110923,217.662047 L631.110923,217.596516 C631.205545,215.131806 630.297506,212.733941 628.594085,210.950285 C626.890665,209.166629 624.537263,208.149432 622.071097,208.130891 C619.61753,208.135825 617.272193,209.141734 615.577331,210.916049 C613.88247,212.690365 612.984827,215.079465 613.09194,217.530984 L613.09194,217.597729 C612.997319,220.062438 613.905358,222.460304 615.608778,224.24396 C617.312198,226.027615 619.6656,227.044813 622.131767,227.063354 C624.586186,227.059425 626.932673,226.053784 628.628367,224.279087 C630.324061,222.50439 631.222042,220.114402 631.114563,217.662047 L631.110923,217.662047 Z" id="Shape" fill="#FFFFFF" fill-rule="nonzero"></path>
                <polygon id="Path" fill="#FFFFFF" points="639.277102 206.132188 641.703901 206.132188 656.143355 224.507635 656.143355 206.132188 658.664799 206.132188 658.664799 229.060844 656.60202 229.060844 641.798546 210.258229 641.798546 229.060844 639.277102 229.060844"></polygon>
                <polygon id="Path" fill="#FFFFFF" points="674.986236 206.132188 691.465414 206.132188 691.465414 208.521651 677.574417 208.521651 677.574417 216.71063 689.988707 216.71063 689.988707 219.070969 677.574417 219.070969 677.574417 229.060844 674.986236 229.060844"></polygon>
                <path d="M696.477968,206.132188 L706.335625,206.132188 C708.726064,206.002447 711.070333,206.826441 712.854007,208.423354 C714.020578,209.635891 714.657066,211.262661 714.623144,212.94501 L714.623144,213.010542 C714.623144,216.808927 712.002201,219.03699 708.399618,219.692302 L715.437335,229.060844 L712.260655,229.060844 L705.610012,220.151021 L699.057655,220.151021 L699.057655,229.060844 L696.470687,229.060844 L696.477968,206.132188 Z M706.10872,217.824661 C709.547494,217.824661 712.002201,216.056531 712.002201,213.108839 L712.002201,213.043307 C712.002201,210.226677 709.841136,208.521651 706.140268,208.521651 L699.064935,208.521651 L699.064935,217.824661 L706.10872,217.824661 Z" id="Shape" fill="#FFFFFF" fill-rule="nonzero"></path>
                <path d="M728.648829,205.967146 L731.075628,205.967146 L741.524211,229.060844 L738.739459,229.060844 L736.055419,223.000417 L723.570752,223.000417 L720.852737,229.060844 L718.200246,229.060844 L728.648829,205.967146 Z M735.036164,220.675271 L729.82704,208.98037 L724.586367,220.675271 L735.036164,220.675271 Z" id="Shape" fill="#FFFFFF" fill-rule="nonzero"></path>
                <polygon id="Path" fill="#FFFFFF" points="746.046551 206.132188 748.66628 206.132188 757.019323 218.643802 765.371151 206.132188 767.990881 206.132188 767.990881 229.060844 765.403913 229.060844 765.403913 210.487589 757.050871 222.772271 756.919824 222.772271 748.567995 210.5155 748.567995 229.05599 746.046551 229.05599"></polygon>
                <polygon id="Path" fill="#FFFFFF" points="774.482568 206.132188 791.056392 206.132188 791.056392 208.490099 777.070749 208.490099 777.070749 216.318656 789.582112 216.318656 789.582112 218.674141 777.070749 218.674141 777.070749 226.699292 791.220201 226.699292 791.220201 229.057203 774.482568 229.057203"></polygon>
                <polygon id="Path" fill="#FFFFFF" points="794.665042 206.132188 797.481342 206.132188 804.0337 225.228479 810.322749 206.065443 812.449839 206.065443 818.738888 225.227266 825.291246 206.130974 828.010474 206.130974 819.822454 229.223458 817.627414 229.223458 811.338365 210.617438 805.016553 229.223458 802.855489 229.223458"></polygon>
                <path d="M830.505223,217.662047 L830.505223,217.596516 C830.433641,213.379144 832.638107,209.449916 836.274509,207.31337 C839.910911,205.176825 844.415878,205.163968 848.064413,207.279723 C851.712948,209.395478 853.9398,213.31206 853.892285,217.529771 L853.892285,217.596516 C853.963693,221.813919 851.759033,225.743079 848.122503,227.879463 C844.485973,230.015847 839.98097,230.02847 836.332527,227.912499 C832.684084,225.796527 830.457446,221.879784 830.505223,217.662047 Z M851.207032,217.662047 L851.207032,217.596516 C851.301317,215.13169 850.393,212.733834 848.689389,210.950218 C846.985778,209.166602 844.632262,208.149443 842.165993,208.130891 C839.712426,208.135825 837.367088,209.141734 835.672227,210.916049 C833.977366,212.690365 833.079723,215.079465 833.186836,217.530984 L833.186836,217.597729 C833.092557,220.062345 834.00071,222.460015 835.704057,224.243594 C837.407404,226.027173 839.760604,227.044475 842.226663,227.063354 C844.680551,227.05842 847.026197,226.052383 848.721286,224.27784 C850.416374,222.503297 851.314145,220.113888 851.207032,217.662047 Z" id="Shape" fill="#FFFFFF" fill-rule="nonzero"></path>
                <path d="M859.368357,206.132187 L869.228442,206.132187 C871.618488,206.002639 873.962308,206.826629 875.74561,208.423354 C876.912181,209.635891 877.548669,211.262661 877.514747,212.94501 L877.514747,213.010542 C877.514747,216.808927 874.895017,219.03699 871.292434,219.692302 L878.330151,229.060844 L875.152258,229.060844 L868.505256,220.151021 L861.952898,220.151021 L861.952898,229.060844 L859.364717,229.060844 L859.368357,206.132187 Z M868.997896,217.824661 C872.43667,217.824661 874.893804,216.056531 874.893804,213.108839 L874.893804,213.043307 C874.893804,210.226677 872.732739,208.521651 869.030658,208.521651 L861.956538,208.521651 L861.956538,217.824661 L868.997896,217.824661 Z" id="Shape" fill="#FFFFFF" fill-rule="nonzero"></path>
                <polygon id="Path" fill="#FFFFFF" points="883.061196 206.132188 885.648164 206.132188 885.648164 219.823365 898.813548 206.132188 902.155251 206.132188 892.326715 216.154828 902.577514 229.060844 899.33531 229.060844 890.524816 217.956938 885.644524 222.903333 885.644524 229.060844 883.061196 229.060844"></polygon>
                <polygon id="Path" fill="#FFFFFF" points="895.923231 121.105391 895.923231 175.081297 882.489685 175.081297 882.489685 121.272859"></polygon>
                <path d="M246.968055,116.624995 L246.968055,116.288844 C246.968055,83.8702917 271.320983,55.4843385 307.094427,55.4843385 C342.867871,55.4843385 366.881047,83.5353542 366.881047,115.952693 L366.881047,116.288844 C366.881047,148.707396 342.529333,177.094563 306.755888,177.094563 C270.982444,177.094563 246.968055,149.042333 246.968055,116.624995 Z M353.11139,116.624995 L353.11139,116.288844 C353.11139,89.5812188 333.630261,67.7471771 306.759529,67.7471771 C279.888797,67.7471771 260.740139,89.2462813 260.740139,115.953906 L260.740139,116.290057 C260.740139,142.996469 280.223695,164.831724 307.092,164.831724 C333.960305,164.831724 353.11139,143.331406 353.11139,116.624995 Z" id="Shape" fill="#FFFFFF" fill-rule="nonzero"></path>
                <polygon id="Path" fill="#FFFFFF" points="527.274261 57.5000313 612.257122 57.5000313 612.257122 69.5941875 540.545211 69.5941875 540.545211 109.738146 604.701283 109.738146 604.701283 121.833516 540.542784 121.833516 540.542784 162.984714 613.096794 162.984714 613.096794 175.077656 527.274261 175.077656"></polygon>
                <polygon id="Path" fill="#FFFFFF" points="664.154218 69.7616562 624.685973 69.7616562 624.685973 57.5048854 717.058437 57.5048854 717.058437 69.7616562 677.588978 69.7616562 677.588978 175.077656 664.154218 175.077656"></polygon>
                <path d="M735.196333,57.5000313 L785.746556,57.5000313 C800.18601,57.5000313 811.778829,61.8687813 819.168432,69.2580365 C825.149919,75.4728155 828.413298,83.8123257 828.238593,92.4366823 L828.238593,92.7728333 C828.238593,112.257458 814.80262,123.679313 796.326186,127.039609 L832.435742,175.077656 L816.14828,175.077656 L782.051754,129.391453 L748.464856,129.391453 L748.464856,175.077656 L735.196333,175.077656 L735.196333,57.5000313 Z M784.573199,117.464766 C802.208747,117.464766 814.805047,108.394755 814.805047,93.2776667 L814.805047,92.9415156 C814.805047,78.5003698 803.719429,69.7628698 784.740648,69.7628698 L748.460002,69.7628698 L748.460002,117.464766 L784.573199,117.464766 Z" id="Shape" fill="#FFFFFF" fill-rule="nonzero"></path>
                <polygon id="Path" fill="#0EDE00" points="882.489685 128.550469 833.615166 57.5000313 849.738819 57.5000313 889.370873 116.288844 967.149782 2.73168229 977.979372 9.43771354 889.474012 137.844984"></polygon>
                <polygon id="Path" fill="#FFFFFF" points="393.105037 222.870568 383.19035 229.665187 331.268985 160.452052 341.184886 153.657432"></polygon>
                <polygon id="Path" fill="#FFFFFF" points="487.302454 57.5000313 444.475519 121.66362 401.648583 57.5000313 388.21261 57.5000313 388.21261 177.050875 401.145022 195.923875 401.145022 80.0075885 443.971958 142.827786 444.644181 142.827786 487.471117 79.8401198 487.471117 175.07887 500.738427 175.07887 500.738427 57.5000313"></polygon>
                <path d="M0.577578164,76.5016667 C0.577578164,64.6089583 8.63333747,50.0039844 18.9338859,44.0552031 L87.3198685,4.45976562 C97.6204169,-1.48658854 114.384744,-1.48658854 124.692573,4.45976562 L193.759273,44.0552031 C204.058608,50.0015573 212.985588,64.6065313 212.985588,76.5016667 L212.985588,155.691328 C212.985588,167.590104 204.006432,182.18901 193.71195,188.136578 L124.863663,227.727161 C114.564328,233.673516 97.5706675,233.673516 87.2701191,227.727161 L18.9994094,188.132938 C8.69886104,182.186583 0.575151365,167.586464 0.575151365,155.687688 L0.577578164,76.5016667 Z" id="Path" fill="#0EDE00"></path>
                <path d="M193.40496,103.329432 C198.057942,89.5578102 194.309103,74.3373161 183.792629,64.3028381 C173.276155,54.2683601 157.898071,51.2385651 144.361962,56.5341952 C130.825853,61.8298254 121.585027,74.4910915 120.667727,88.9987188 C123.24225,90.0937031 125.742344,91.3560581 128.151975,92.7776875 C127.522257,79.3195256 135.97706,67.1049233 148.793869,62.9564698 C161.610678,58.8080162 175.618024,63.7522303 182.991961,75.0274714 C190.365899,86.3027125 189.281777,101.118966 180.345141,111.200464 C179.761901,111.858203 179.155201,112.484391 178.525042,113.079026 L174.244169,108.599844 L173.929898,122.451208 L187.77964,122.765516 L183.706258,118.502344 C184.484452,117.762083 185.233119,116.986226 185.952261,116.174771 C189.275668,112.438325 191.810547,108.069253 193.40496,103.329432 Z" id="Path" fill="#FFFFFF"></path>
                <path d="M80.8209226,87.8354994 C53.8269394,93.3053457 34.4284668,117.045376 34.4447717,144.591063 C34.4447717,146.269795 34.5159578,147.937201 34.65833,149.593281 L25.5578337,150.352958 L41.93266,164.203109 L55.782402,147.831219 L46.2256675,148.628516 C46.110799,147.297665 46.0521514,145.951847 46.0497246,144.591063 C46.0450421,119.037848 66.7510668,98.317638 92.3012864,98.3078146 C117.851506,98.2979912 138.573454,119.002273 138.588416,144.555484 C138.603378,170.108694 117.90569,190.837234 92.3554764,190.857339 L92.3554764,190.823359 L23.0533772,190.904667 L43.074469,202.463651 L92.3591166,202.359286 L92.3591166,202.463651 C111.74762,202.439203 129.836668,192.70957 140.545954,176.545193 C151.255239,160.380816 153.162767,139.928027 145.627355,122.061661 C134.923006,96.6819613 107.814906,82.3656532 80.8209226,87.8354994 Z" id="Path" fill="#FFFFFF"></path>
                <path d="M159.007511,74.1413281 C152.708804,74.1408373 147.030034,77.935154 144.619283,83.754942 C142.208532,89.5747299 143.540573,96.2738394 147.994258,100.728394 C152.447943,105.182948 159.146164,106.515666 164.965458,104.105086 C170.784752,101.694506 174.579067,96.0153675 174.579067,89.7159219 C174.579067,81.1147852 167.60764,74.1419983 159.007511,74.1413281 Z M156.823392,96.9110104 L150.635055,92.1599948 L153.006037,89.0654635 L156.17301,91.4925469 L164.825762,80.692026 L167.867754,83.1312448 L156.823392,96.9110104 Z" id="Shape" fill="#FFFFFF" fill-rule="nonzero"></path>
                <path d="M121.489199,137.352286 C121.379114,136.881177 121.052592,136.489965 120.608791,136.297453 C120.16499,136.104942 119.656275,136.133845 119.237129,136.375385 C116.615366,137.962347 113.242198,137.507689 111.134047,135.283198 C109.867256,133.864837 109.305403,131.951915 109.603936,130.073687 C109.902469,128.195459 111.029736,126.551076 112.673851,125.595495 C113.179346,125.304541 113.51823,124.792401 113.588426,124.213341 C113.658621,123.634282 113.451922,123.055989 113.030591,122.652656 C109.725891,119.512574 105.735079,117.185782 101.374675,115.856823 C100.91597,115.716216 100.417786,115.801133 100.031548,116.085763 C99.6453092,116.370393 99.4166362,116.821118 99.4150347,117.300937 C99.4786608,120.365713 97.3979448,123.060503 94.4170422,123.773969 C92.5555174,124.162823 90.6178383,123.693599 89.1403524,122.496177 C87.6628666,121.298756 86.8023135,119.500166 86.7968933,117.598255 C86.7964485,117.005461 86.5167968,116.447515 86.0421592,116.092451 C85.5675216,115.737386 84.9533663,115.626697 84.3846551,115.793719 C80.0240984,117.105332 76.0282862,119.413195 72.7129653,122.534943 C72.3653949,122.860447 72.1922422,123.331185 72.2460327,123.804358 C72.2998233,124.27753 72.5742182,124.697379 72.9859801,124.936542 C75.6707065,126.413967 76.9636685,129.562395 76.0922829,132.500547 C75.5001785,134.308769 74.1257448,135.754422 72.3498469,136.436906 C70.573949,137.11939 68.5852224,136.966212 66.9347568,136.019818 C66.4262726,135.725116 65.8088376,135.68665 65.2677153,135.915962 C64.726593,136.145274 64.3247523,136.615679 64.1827667,137.186031 C63.1178957,141.617556 63.1004465,146.236314 64.131804,150.67576 C64.2434147,151.145781 64.5705536,151.535407 65.0141379,151.726629 C65.4577222,151.917852 65.9655727,151.888177 66.3838734,151.646594 C69.0056367,150.059632 72.3788047,150.514291 74.4869553,152.738781 C75.7549585,154.156502 76.3179664,156.069513 76.0201061,157.948182 C75.7222458,159.826852 74.5951234,161.471832 72.9507916,162.427698 C72.4452969,162.718651 72.1064124,163.230792 72.0362171,163.809851 C71.9660218,164.388911 72.1727209,164.967204 72.5940521,165.370536 C75.8987518,168.510618 79.8895634,170.83741 84.2499677,172.16637 C84.7088306,172.307446 85.2073912,172.222755 85.5939464,171.938068 C85.9805017,171.65338 86.2093368,171.202364 86.2108213,170.722255 C86.1470667,167.65784 88.227181,164.963175 91.2076005,164.249224 C93.0691252,163.86037 95.0068044,164.329594 96.4842902,165.527015 C97.9617761,166.724437 98.8223292,168.523027 98.8277494,170.424937 C98.8257704,171.016817 99.1031762,171.574923 99.5761676,171.930664 C100.049159,172.286405 100.662266,172.39806 101.23028,172.231901 C105.358294,171.081769 109.266501,169.253542 112.795191,166.821932 C113.431784,166.338862 113.769043,165.557735 113.684123,164.763072 C113.599204,163.968409 113.104501,163.276208 112.380208,162.938599 C110.735743,161.983207 109.608358,160.338536 109.310251,158.46003 C109.012144,156.581524 109.574956,154.668566 110.842831,153.250896 C112.950982,151.026405 116.32415,150.571747 118.945913,152.158708 C119.394003,152.41804 119.937808,152.452034 120.4147,152.250524 C120.891591,152.049014 121.246286,151.635359 121.372712,151.133266 C122.506368,146.615597 122.547962,141.892867 121.494052,137.355927 L121.489199,137.352286 Z M92.8092878,157.159714 C87.4920184,157.160204 82.6980715,153.957096 80.6630138,149.044098 C78.6279562,144.1311 79.7525925,138.475827 83.5124698,134.715509 C87.2723471,130.955192 92.9269575,129.830424 97.83938,131.86572 C102.751803,133.901016 105.954535,138.695524 105.954045,144.013417 C105.954045,151.273916 100.068937,157.159714 92.8092878,157.159714 Z" id="Shape" fill="#FFFFFF" fill-rule="nonzero"></path>
            </g>
        </g>
    </g>
</svg>